# xmcd
#
# Track frame offsets: 
#        150
#        19160
#        38545
#        51800
#        71820
#        89668
#        105725
#        128643
#        143068
#        160758
#
# Disc length: 2439 seconds
#
# Revision: 2
# Processed by: cddbd v1.5.2PL0 Copyright (c) Steve Scherf et al.
# Submitted via: ExactAudioCopyFreeDBPlugin 1.0
#
DISCID=8209850a
DTITLE=신해철 - 1집 - 슬픈표정 하지말아요
DYEAR=1990
DGENRE=K-Pop
TTITLE0=슬픈 표정하지 말아요
TTITLE1=떠나보내며
TTITLE2=너무 어려워
TTITLE3=P.M. 7:20
TTITLE4=함께가요
TTITLE5=안녕
TTITLE6=인생이란 이름의 꿈
TTITLE7=연극 속에서
TTITLE8=아직도 날원하나요
TTITLE9=고백
EXTD='ë¿µ¿¡ÀÌºêÀÌ YEAR: 1990
EXTT0=
EXTT1=
EXTT2=
EXTT3=
EXTT4=
EXTT5=
EXTT6=
EXTT7=
EXTT8=
EXTT9=
PLAYORDER=
